<svg xmlns="http://www.w3.org/2000/svg" width="1024" height="1024" viewBox="0 0 1024 1024"><defs>
<radialGradient id="gHead" cx="0.40" cy="0.28" r="0.80">
  <stop offset="0" stop-color="#cdd9ff"/><stop offset="0.32" stop-color="#97adff"/>
  <stop offset="0.70" stop-color="#6271f4"/><stop offset="1" stop-color="#4144d6"/>
</radialGradient>
<linearGradient id="gBlue" x1="0" y1="0" x2="0" y2="1">
  <stop offset="0" stop-color="#5a60ff"/><stop offset="1" stop-color="#2d27bd"/>
</linearGradient>
<radialGradient id="gHand" cx="0.36" cy="0.30" r="0.85">
  <stop offset="0" stop-color="#8790ff"/><stop offset="0.55" stop-color="#4b4df2"/><stop offset="1" stop-color="#2c28b8"/>
</radialGradient>
<linearGradient id="gGold" x1="0" y1="0" x2="1" y2="1">
  <stop offset="0" stop-color="#fff2bf"/><stop offset="0.45" stop-color="#ebbd5a"/><stop offset="1" stop-color="#a9721e"/>
</linearGradient>
<radialGradient id="gAura" cx="0.5" cy="0.5" r="0.5">
  <stop offset="0" stop-color="#ff7a3d" stop-opacity="0.42"/>
  <stop offset="0.55" stop-color="#ff7a3d" stop-opacity="0.14"/>
  <stop offset="1" stop-color="#ff7a3d" stop-opacity="0"/>
</radialGradient>
<radialGradient id="gPlat" cx="0.5" cy="0.5" r="0.5">
  <stop offset="0" stop-color="#ff7a3d" stop-opacity="0.75"/>
  <stop offset="0.6" stop-color="#ff7a3d" stop-opacity="0.22"/>
  <stop offset="1" stop-color="#ff7a3d" stop-opacity="0"/>
</radialGradient>
<radialGradient id="gShine" cx="0.5" cy="0.5" r="0.5">
  <stop offset="0" stop-color="#ffffff" stop-opacity="0.9"/><stop offset="1" stop-color="#ffffff" stop-opacity="0"/>
</radialGradient>
<filter id="b2" x="-50%" y="-50%" width="200%" height="200%"><feGaussianBlur stdDeviation="2"/></filter>
<filter id="b4" x="-50%" y="-50%" width="200%" height="200%"><feGaussianBlur stdDeviation="4"/></filter>
<filter id="b8" x="-50%" y="-50%" width="200%" height="200%"><feGaussianBlur stdDeviation="8"/></filter>
<filter id="b16" x="-50%" y="-50%" width="200%" height="200%"><feGaussianBlur stdDeviation="16"/></filter>
<filter id="b28" x="-50%" y="-50%" width="200%" height="200%"><feGaussianBlur stdDeviation="28"/></filter>
<filter id="glow" x="-50%" y="-50%" width="200%" height="200%">
  <feGaussianBlur stdDeviation="10" result="b"/><feMerge><feMergeNode in="b"/><feMergeNode in="SourceGraphic"/></feMerge>
</filter>
<clipPath id="cHead"><path d="M 490.3,128.8 Q 512.0,95.6 533.7,128.8 L 550.3,154.4 Q 560.1,169.5 576.0,161.0 L 602.8,146.7 Q 637.8,128.0 641.2,165.5 L 643.8,193.4 Q 645.4,211.3 663.3,209.7 L 703.8,206.1 Q 743.6,202.6 725.0,238.0 L 708.5,269.4 Q 700.1,285.3 716.4,292.9 L 743.5,305.3 Q 779.0,321.7 748.7,345.5 L 725.8,363.5 Q 711.7,374.6 722.3,389.2 L 737.5,409.8 Q 758.7,438.7 722.2,446.6 L 695.1,452.5 Q 677.6,456.4 674.9,474.2 L 673.0,486.6 Q 669.3,511.4 640.6,510.5 L 623.5,509.9 Q 605.5,509.3 590.8,519.8 L 583.0,525.3 Q 564.6,538.4 540.9,533.2 L 529.6,530.7 Q 512.0,526.8 494.6,531.4 L 482.7,534.5 Q 458.7,540.7 440.6,526.6 L 432.7,520.4 Q 418.5,509.3 400.5,509.3 L 384.7,509.2 Q 357.0,509.1 352.3,485.4 L 350.0,474.0 Q 346.4,456.4 328.9,452.3 L 302.7,446.3 Q 267.0,438.1 287.4,409.5 L 301.8,389.3 Q 312.3,374.6 298.2,363.5 L 275.3,345.5 Q 245.0,321.7 280.5,305.3 L 307.6,292.9 Q 323.9,285.3 316.7,268.9 L 305.4,243.3 Q 290.3,209.0 330.0,210.0 L 360.6,210.8 Q 378.6,211.3 379.6,193.3 L 381.3,162.8 Q 383.5,123.1 418.1,143.1 L 448.3,160.5 Q 463.9,169.5 473.7,154.4 Z"/></clipPath>
<linearGradient id="gOutfit" x1="0" y1="0" x2="0" y2="1"><stop offset="0" stop-color="#5a399e"/><stop offset="1" stop-color="#36206b"/></linearGradient><linearGradient id="gOver" x1="0" y1="0" x2="0" y2="1"><stop offset="0" stop-color="#4a4566"/><stop offset="1" stop-color="#2b2740"/></linearGradient><linearGradient id="gCap" x1="0" y1="0" x2="0" y2="1"><stop offset="0" stop-color="#ff9a5c"/><stop offset="1" stop-color="#e2551e"/></linearGradient><linearGradient id="gSteel" x1="0" y1="0" x2="1" y2="0"><stop offset="0" stop-color="#ffffff"/><stop offset="1" stop-color="#a4aac4"/></linearGradient>
</defs><g id="aura"><circle cx="512" cy="500" r="500" fill="url(#gAura)"/><ellipse cx="512" cy="928" rx="300" ry="46" fill="url(#gPlat)"/></g><g id="legs"><rect x="416" y="772" width="92" height="140" rx="46" fill="url(#gBlue)"/><ellipse cx="462" cy="906" rx="56" ry="30" fill="url(#gBlue)"/><ellipse cx="448" cy="822" rx="12" ry="34" fill="#fff" opacity=".16" filter="url(#b4)"/><rect x="516" y="772" width="92" height="140" rx="46" fill="url(#gBlue)"/><ellipse cx="562" cy="906" rx="56" ry="30" fill="url(#gBlue)"/><ellipse cx="548" cy="822" rx="12" ry="34" fill="#fff" opacity=".16" filter="url(#b4)"/></g><g id="torso"><path d="M 384 548 C 352 590 338 690 342 790 Q 346 846 404 850 L 620 850 Q 678 846 682 790 C 686 690 672 590 640 548 Z" fill="url(#gOutfit)"/><clipPath id="cTorso"><path d="M 384 548 C 352 590 338 690 342 790 Q 346 846 404 850 L 620 850 Q 678 846 682 790 C 686 690 672 590 640 548 Z"/></clipPath><g clip-path="url(#cTorso)"><ellipse cx="330" cy="720" rx="60" ry="200" fill="#000" opacity="0.28" filter="url(#b16)"/><ellipse cx="694" cy="720" rx="60" ry="200" fill="#000" opacity="0.28" filter="url(#b16)"/><ellipse cx="512" cy="560" rx="200" ry="40" fill="#000" opacity=".35" filter="url(#b16)"/></g></g><g id="outfit"><path d="M 430 640 L 594 640 L 600 850 L 424 850 Z" fill="url(#gOver)"/><path d="M 342 760 L 682 760 L 682 850 L 342 850 Z" fill="url(#gOver)" clip-path="url(#cTorso)"/><rect x="466" y="664" width="92" height="64" rx="10" fill="none" stroke="#ff7a3d" stroke-width="4" stroke-dasharray="8 6"/><path d="M 420 556 L 446 648 M 604 556 L 578 648" stroke="#3a3556" stroke-width="30" stroke-linecap="round"/><circle cx="446" cy="648" r="13" fill="url(#gGold)"/><circle cx="578" cy="648" r="13" fill="url(#gGold)"/><rect x="342" y="770" width="340" height="30" fill="#8a5a2b" clip-path="url(#cTorso)"/><rect x="496" y="766" width="34" height="38" rx="6" fill="none" stroke="url(#gGold)" stroke-width="7"/><rect x="370" y="790" width="70" height="56" rx="10" fill="#a06a35"/><rect x="590" y="790" width="64" height="52" rx="10" fill="#a06a35"/><rect x="384" y="756" width="10" height="44" rx="4" fill="#ffcf3d"/><rect x="380" y="748" width="18" height="14" rx="4" fill="#ff5a5a"/><rect x="410" y="760" width="8" height="40" fill="#c9cde0"/></g><g id="head_back"><path d="M 612 160 Q 700 118 776 140 Q 770 176 640 196 Z" fill="#c4461a"/><path d="M 640 168 Q 704 140 760 150" fill="none" stroke="#ffb08a" stroke-width="4" stroke-dasharray="8 6"/></g><g id="head"><path d="M 490.3,128.8 Q 512.0,95.6 533.7,128.8 L 550.3,154.4 Q 560.1,169.5 576.0,161.0 L 602.8,146.7 Q 637.8,128.0 641.2,165.5 L 643.8,193.4 Q 645.4,211.3 663.3,209.7 L 703.8,206.1 Q 743.6,202.6 725.0,238.0 L 708.5,269.4 Q 700.1,285.3 716.4,292.9 L 743.5,305.3 Q 779.0,321.7 748.7,345.5 L 725.8,363.5 Q 711.7,374.6 722.3,389.2 L 737.5,409.8 Q 758.7,438.7 722.2,446.6 L 695.1,452.5 Q 677.6,456.4 674.9,474.2 L 673.0,486.6 Q 669.3,511.4 640.6,510.5 L 623.5,509.9 Q 605.5,509.3 590.8,519.8 L 583.0,525.3 Q 564.6,538.4 540.9,533.2 L 529.6,530.7 Q 512.0,526.8 494.6,531.4 L 482.7,534.5 Q 458.7,540.7 440.6,526.6 L 432.7,520.4 Q 418.5,509.3 400.5,509.3 L 384.7,509.2 Q 357.0,509.1 352.3,485.4 L 350.0,474.0 Q 346.4,456.4 328.9,452.3 L 302.7,446.3 Q 267.0,438.1 287.4,409.5 L 301.8,389.3 Q 312.3,374.6 298.2,363.5 L 275.3,345.5 Q 245.0,321.7 280.5,305.3 L 307.6,292.9 Q 323.9,285.3 316.7,268.9 L 305.4,243.3 Q 290.3,209.0 330.0,210.0 L 360.6,210.8 Q 378.6,211.3 379.6,193.3 L 381.3,162.8 Q 383.5,123.1 418.1,143.1 L 448.3,160.5 Q 463.9,169.5 473.7,154.4 Z" fill="url(#gHead)"/><g clip-path="url(#cHead)"><ellipse cx="512" cy="620" rx="330" ry="150" fill="#2a22a6" opacity=".55" filter="url(#b28)"/><path d="M 490.3,128.8 Q 512.0,95.6 533.7,128.8 L 550.3,154.4 Q 560.1,169.5 576.0,161.0 L 602.8,146.7 Q 637.8,128.0 641.2,165.5 L 643.8,193.4 Q 645.4,211.3 663.3,209.7 L 703.8,206.1 Q 743.6,202.6 725.0,238.0 L 708.5,269.4 Q 700.1,285.3 716.4,292.9 L 743.5,305.3 Q 779.0,321.7 748.7,345.5 L 725.8,363.5 Q 711.7,374.6 722.3,389.2 L 737.5,409.8 Q 758.7,438.7 722.2,446.6 L 695.1,452.5 Q 677.6,456.4 674.9,474.2 L 673.0,486.6 Q 669.3,511.4 640.6,510.5 L 623.5,509.9 Q 605.5,509.3 590.8,519.8 L 583.0,525.3 Q 564.6,538.4 540.9,533.2 L 529.6,530.7 Q 512.0,526.8 494.6,531.4 L 482.7,534.5 Q 458.7,540.7 440.6,526.6 L 432.7,520.4 Q 418.5,509.3 400.5,509.3 L 384.7,509.2 Q 357.0,509.1 352.3,485.4 L 350.0,474.0 Q 346.4,456.4 328.9,452.3 L 302.7,446.3 Q 267.0,438.1 287.4,409.5 L 301.8,389.3 Q 312.3,374.6 298.2,363.5 L 275.3,345.5 Q 245.0,321.7 280.5,305.3 L 307.6,292.9 Q 323.9,285.3 316.7,268.9 L 305.4,243.3 Q 290.3,209.0 330.0,210.0 L 360.6,210.8 Q 378.6,211.3 379.6,193.3 L 381.3,162.8 Q 383.5,123.1 418.1,143.1 L 448.3,160.5 Q 463.9,169.5 473.7,154.4 Z" fill="none" stroke="#e6edff" stroke-width="16" opacity=".55" filter="url(#b8)"/><ellipse cx="438" cy="214" rx="130" ry="70" fill="#fff" opacity=".42" filter="url(#b28)" transform="rotate(-18 438 214)"/><ellipse cx="512" cy="430" rx="190" ry="120" fill="#c7d4ff" opacity=".22" filter="url(#b28)"/></g><ellipse cx="402" cy="206" rx="40" ry="17" fill="#fff" opacity=".8" transform="rotate(-32 402 206)" filter="url(#b4)"/><ellipse cx="452" cy="176" rx="12" ry="7" fill="#fff" opacity=".7" transform="rotate(-20 452 176)" filter="url(#b2)"/></g><g id="face"><circle cx="430" cy="386" r="68" fill="#eaf0ff" opacity=".13"/><circle cx="594" cy="386" r="68" fill="#eaf0ff" opacity=".13"/><path d="M 406 400 Q 430 414 454 400" fill="none" stroke="#1a1b5c" stroke-width="9" stroke-linecap="round"/><ellipse cx="596" cy="396" rx="27.0" ry="35.0" fill="#1a1b5c"/><ellipse cx="605.0" cy="383.0" rx="10.0" ry="11.0" fill="#fff"/><circle cx="587.0" cy="412.0" r="4.5" fill="#fff" opacity=".85"/><circle cx="430" cy="386" r="68" fill="none" stroke="#7a4f12" stroke-width="12" opacity=".35"/><circle cx="430" cy="386" r="68" fill="none" stroke="url(#gGold)" stroke-width="9"/><path d="M 384 352 A 56 56 0 0 1 416 332" fill="none" stroke="#fff" stroke-width="7" stroke-linecap="round" opacity=".55"/><circle cx="594" cy="386" r="68" fill="none" stroke="#7a4f12" stroke-width="12" opacity=".35"/><circle cx="594" cy="386" r="68" fill="none" stroke="url(#gGold)" stroke-width="9"/><path d="M 548 352 A 56 56 0 0 1 580 332" fill="none" stroke="#fff" stroke-width="7" stroke-linecap="round" opacity=".55"/><path d="M 496 372 Q 512 350 528 372" fill="none" stroke="url(#gGold)" stroke-width="8" stroke-linecap="round"/><path d="M 362 380 L 326 368" stroke="url(#gGold)" stroke-width="7" stroke-linecap="round"/><path d="M 662 380 L 698 368" stroke="url(#gGold)" stroke-width="7" stroke-linecap="round"/><path d="M 396.7 299.1 Q 430 282 463.3 284.9" fill="none" stroke="#1a1b5c" stroke-width="9" stroke-linecap="round"/><path d="M 560.3 287.3 Q 594 282 627.7 296.7" fill="none" stroke="#1a1b5c" stroke-width="9" stroke-linecap="round"/><ellipse cx="398" cy="460" rx="30" ry="15" fill="#ff8fc8" opacity="0.38" filter="url(#b4)"/><ellipse cx="626" cy="460" rx="30" ry="15" fill="#ff8fc8" opacity="0.38" filter="url(#b4)"/><path d="M 468 476 Q 512 532 556 476 Z" fill="#1a1b5c" stroke="#1a1b5c" stroke-width="6" stroke-linejoin="round"/><path d="M 476 480 L 548 480 L 542 490 L 482 490 Z" fill="#fff"/><path d="M 372 470 q 22 -8 46 4" stroke="#2b2740" stroke-width="10" stroke-linecap="round" opacity=".45"/><circle cx="428" cy="478" r="5" fill="#2b2740" opacity=".4"/></g><g id="hat"><path d="M 340 214 C 340 66 684 66 684 214 Q 512 236 340 214 Z" fill="url(#gCap)"/><path d="M 470 214 Q 470 168 512 168 Q 554 168 554 214 Z" fill="#7a2a08" opacity=".8"/><path d="M 474 196 H 550" stroke="#ffd3b8" stroke-width="8" stroke-linecap="round"/><circle cx="512" cy="104" r="12" fill="#e2551e"/><ellipse cx="450" cy="126" rx="64" ry="22" fill="#fff" opacity=".35" filter="url(#b8)"/><path d="M 340 214 Q 512 236 684 214" fill="none" stroke="#b8481c" stroke-width="6"/></g><g id="sleeves"><path d="M 394 598 Q 330 640 318 690" fill="none" stroke="#5a399e" stroke-width="74" stroke-linecap="round"/><path d="M 394 598 Q 330 640 318 690" fill="none" stroke="#000" stroke-width="25.9" stroke-linecap="round" opacity=".18" transform="translate(6 8)"/><circle cx="319.9" cy="683.0" r="40.0" fill="#ff7a3d"/><path d="M 630 598 Q 724 600 726 500" fill="none" stroke="#5a399e" stroke-width="74" stroke-linecap="round"/><path d="M 630 598 Q 724 600 726 500" fill="none" stroke="#000" stroke-width="25.9" stroke-linecap="round" opacity=".18" transform="translate(6 8)"/><circle cx="725.3" cy="513.5" r="40.0" fill="#ff7a3d"/></g><g id="mid"><g transform="translate(728 470) rotate(18) scale(1.0)"><rect x="-15" y="-120" width="30" height="176" rx="15" fill="url(#gSteel)"/><path d="M -17 -192.7 A 46 46 0 1 0 17 -192.7 L 17 -160 A 17 17 0 0 1 -17 -160 Z" fill="url(#gSteel)"/><path d="M -17 -192.7 A 46 46 0 1 0 17 -192.7 L 17 -160 A 17 17 0 0 1 -17 -160 Z" fill="none" stroke="#7d84a3" stroke-width="3"/><rect x="-15" y="-120" width="30" height="176" rx="15" fill="none" stroke="#7d84a3" stroke-width="3"/><rect x="-6" y="-110" width="7" height="120" rx="3" fill="#fff" opacity=".6"/><circle cx="0" cy="36" r="7" fill="#7d84a3"/></g></g><g id="hands"><g transform="translate(316 700) scale(1.0 1.0)"><rect x="-14" y="-78" width="30" height="62" rx="15" fill="url(#gHand)"/><ellipse cx="0" cy="0" rx="44" ry="40" fill="url(#gHand)"/><path d="M -30 -6 Q 0 4 30 -6" stroke="#2a26a8" stroke-width="4" fill="none" opacity=".5"/><path d="M -30 12 Q 0 22 30 12" stroke="#2a26a8" stroke-width="4" fill="none" opacity=".5"/><ellipse cx="-4" cy="-62" rx="7" ry="12" fill="#fff" opacity=".25"/></g><g transform="translate(728 474) rotate(-70) scale(-1.0 1.0)"><ellipse cx="-30" cy="-6" rx="16" ry="22" transform="rotate(-60 -30 -6)" fill="url(#gHand)"/><ellipse cx="0" cy="0" rx="45" ry="41" fill="url(#gHand)"/><ellipse cx="-12" cy="-18" rx="20" ry="11" fill="#fff" opacity=".22" filter="url(#b2)"/></g></g><g id="front"><path d="M 842 210 Q 842 236 868 236 Q 842 236 842 262 Q 842 236 816 236 Q 842 236 842 210 Z" fill="#fff" opacity="1.0"/><path d="M 880 286 Q 880 300 894 300 Q 880 300 880 314 Q 880 300 866 300 Q 880 300 880 286 Z" fill="#ff7a3d" opacity="1.0"/><path d="M 230 542 Q 230 560 248 560 Q 230 560 230 578 Q 230 560 212 560 Q 230 560 230 542 Z" fill="#ff7a3d" opacity="0.9"/></g></svg>